# xmcd
#
# Track frame offsets:
#	150
#	18660
#	36298
#	50384
#	86209
#	109439
#	127737
#	143157
#	162098
#	178547
#	197345
#	213022
#	228828
#	248629
#	270330
#
# Disc length: 3872 seconds
# Revision: 0
# Processed by: cddbd v1.5.2PL0 Copyright (c) Steve Scherf et al.
# Submitted via: dBpowerAMP V12.0
#
DISCID=bf0f1e0f
DTITLE=Barry White - Gold
DYEAR=2005
DGENRE=blues
TTITLE0=Love's theme
TTITLE1=I'm gonna love you just a little bit more baby
TTITLE2=I've got so much to give
TTITLE3=Never, never gonna give ya up
TTITLE4=Honey please can't you see
TTITLE5=Can't get enough of your love, babe
TTITLE6=You're the first, the last, my everything
TTITLE7=Satin soul
TTITLE8=What am i gonna do with you
TTITLE9=I'll do for you anything you want me to
TTITLE10=Let the music play
TTITLE11=You see the trouble with me
TTITLE12=Baby, we better try to get it together
TTITLE13=Walking in the rain [With the one i love]
TTITLE14=It may be winter outside [But in my heart it's spring]
EXTD=
EXTT0=
EXTT1=
EXTT2=
EXTT3=
EXTT4=
EXTT5=
EXTT6=
EXTT7=
EXTT8=
EXTT9=
EXTT10=
EXTT11=
EXTT12=
EXTT13=
EXTT14=
PLAYORDER=
